# xmcd
#
# Track frame offsets:
# 150
# 13790
# 37162
# 51268
# 60946
# 83274
# 97991
# 110388
# 124346
# 143630
# 184961
# 199670
# 217678
#
# Disc length: 3041 seconds
#
#
# Revision: 0
# Processed by: cddbd v1.5PL3 Copyright (c) Steve Scherf et al.
# Submitted via: FreeRIP 2.11 
#
DISCID=a80bdf0d
DTITLE=Green Mountain Grass - Green Mountain Grass
DYEAR=2002
DGENRE=Bluegrass
TTITLE0=Savoie Breakdown
TTITLE1=I Know You Rider
TTITLE2=Angry Bees
TTITLE3=Country Club Blues
TTITLE4=You Ain't Goin' Nowwhere
TTITLE5=El Combenchero
TTITLE6=Ashes Of Love
TTITLE7=Lower Turtle Washout
TTITLE8=House of the Rising Sun
TTITLE9=One More Cup of Coffee
TTITLE10=Sweet Home Albania
TTITLE11=Orange Blossom Special
TTITLE12=Meditations Of The Last Life
EXTD=
EXTT0=
EXTT1=
EXTT2=
EXTT3=
EXTT4=
EXTT5=
EXTT6=
EXTT7=
EXTT8=
EXTT9=
EXTT10=
EXTT11=
EXTT12=
PLAYORDER=
